<?xml version="1.0" standalone="no"?>
<!DOCTYPE svg PUBLIC "-//W3C//DTD SVG 20010904//EN"
 "http://www.w3.org/TR/2001/REC-SVG-20010904/DTD/svg10.dtd">
<svg version="1.0" xmlns="http://www.w3.org/2000/svg"
 width="168.000000pt" height="168.000000pt" viewBox="0 0 168.000000 168.000000"
 preserveAspectRatio="xMidYMid meet">
<metadata>
Created by potrace 1.14, written by Peter Selinger 2001-2017
</metadata>
<g transform="translate(0.000000,168.000000) scale(0.100000,-0.100000)"
fill="#000000" stroke="none">
<path d="M0 840 l0 -840 840 0 840 0 0 840 0 840 -840 0 -840 0 0 -840z m730
445 l0 -75 150 0 150 0 0 75 0 75 200 0 200 0 0 -200 0 -200 -200 0 -200 0 0
75 0 75 -50 0 -50 0 0 -300 0 -300 50 0 50 0 0 75 0 75 200 0 200 0 0 -200 0
-200 -200 0 -200 0 0 75 0 75 -100 0 -100 0 0 350 0 350 -50 0 -50 0 0 -75 0
-75 -200 0 -200 0 0 200 0 200 200 0 200 0 0 -75z"/>
<path d="M1130 1160 l0 -100 100 0 100 0 0 100 0 100 -100 0 -100 0 0 -100z"/>
<path d="M1130 460 l0 -100 100 0 100 0 0 100 0 100 -100 0 -100 0 0 -100z"/>
</g>
</svg>
